.
 
http://www.scenetime.com    -   SceneTime [ We been having it ] !!!


How come you press harder on a remote control when you know the battery is dead? so you better seed to get speed ;)

        Seed back for speed


...................................NFO:.................................................[img]http://img844.imageshack.us/img844/7685/hops.png[/img]

[color=blue][size=4][b]Hop.2011.DVDRip.XVID.AC3.HQ.Hive-CM8[/b][/size][/color]


[b]Thx Hive


CM8 Doing It Right The First Time :D

Source: German DVD-R  thx mate
(has eng. audio on it)

Encode:
added brightness,sharpness,rgb,denoise
first in high quality :D
enjoy

Video: 720x384 @bitrate 2000 2pass
Audio: English AC3 5.1 @384
Sample: yes included[/b]


[url]http://www.imdb.com/title/tt1411704/[/url]


General
Complete name                    : Hop.2011.DVDRip.XVID.AC3.HQ.Hive-CM8.avi
Format                           : AVI
Format/Info                      : Audio Video Interleave
File size                        : 1.52 GiB
Duration                         : 1h 31mn
Overall bit rate                 : 2 389 Kbps
Writing application              : Nandub v1.0rc2
Writing library                  : Nandub build 1853/release

Video
ID                               : 0
Format                           : MPEG-4 Visual
Format profile                   : Advanced Simple@L5
Format settings, BVOP            : 2
Format settings, QPel            : Yes
Format settings, GMC             : No warppoints
Format settings, Matrix          : Default (H.263)
Muxing mode                      : Packed bitstream
Codec ID                         : XVID
Codec ID/Hint                    : XviD
Duration                         : 1h 31mn
Bit rate                         : 1 995 Kbps
Width                            : 720 pixels
Height                           : 384 pixels
Display aspect ratio             : 1.875
Frame rate                       : 25.000 fps
Color space                      : YUV
Chroma subsampling               : 4:2:0
Bit depth                        : 8 bits
Scan type                        : Progressive
Compression mode                 : Lossy
Bits/(Pixel*Frame)               : 0.289
Stream size                      : 1.27 GiB (84%)
Writing library                  : XviD 1.2.1 (UTC 2008-12-04)

Audio
ID                               : 1
Format                           : AC-3
Format/Info                      : Audio Coding 3
Mode extension                   : CM (complete main)
Codec ID                         : 2000
Duration                         : 1h 31mn
Bit rate mode                    : Constant
Bit rate                         : 384 Kbps
Channel(s)                       : 6 channels
Channel positions                : Front: L C R, Side: L R, LFE
Sampling rate                    : 48.0 KHz
Bit depth                        : 16 bits
Compression mode                 : Lossy
Stream size                      : 250 MiB (16%)
Alignment                        : Split accross interleaves
Interleave, duration             : 40 ms (1.00 video frame)
Interleave, preload duration     : 500 ms



James Marsden	... 	Fred O'Hare
Russell Brand	... 	E.B. / Production Assistant (voice)
Kaley Cuoco	... 	Sam O'Hare
Hank Azaria	... 	Carlos / Phil (voice)
Gary Cole	... 	Henry O'Hare
Elizabeth Perkins	... 	Bonnie O'Hare
Hugh Laurie	... 	E.B.'s Dad (voice)
Tiffany Espensen	... 	Alex O'Hare
David Hasselhoff	... 	Himself


Blending state-of-the-art animation with live action, Hop tells the comic tale of Fred, 
an out-of-work slacker who accidentally injures the Easter Bunny and must take him in as he recovers. 
As Fred struggles with the world's worst house guest, both will learn what it takes to finally grow up. 
  

[img]http://img7.imageshack.us/img7/7503/60759694.png[/img]
[img]http://img714.imageshack.us/img714/9177/hohov.png[/img]
[img]http://img824.imageshack.us/img824/8697/hohoho.png[/img]
[img]http://img155.imageshack.us/img155/421/hohohoho.png[/img]
[img]http://img402.imageshack.us/img402/4703/hohohohoho.png[/img]
[img]http://img706.imageshack.us/img706/6033/hohohohohoho.png[/img]
[img]http://img847.imageshack.us/img847/3085/hohohohohohoho.png[/img]
[img]http://img52.imageshack.us/img52/4526/hohohohohohohoho.png[/img]
[img]http://img339.imageshack.us/img339/4775/hohohohohohohohoho.png[/img]
[img]http://img41.imageshack.us/img41/6884/hohohohohohohohohoho.png[/img]





Greetz

ViSiON,SANTi,3LT0N,MAGNET,THC,T0XiC,LKRG,FANTASIA-PLAY,FANTASIA-M,BHRG,IMAGiNE,WBZ,FLAWL3SS,NOVA,
D2U,Vik,Rapeseed,SAFC,goldadvance,MEMORY100,KaN1vE,Unevano,Pinnz,Wayne,cedrict wink,
Mr Hive and all P2P groups
Great Work Guys :D

FYS

CM8@hushmail.com